<svg width="21.000000" height="17.000000" viewBox="0 0 21 17" fill="none" xmlns="http://www.w3.org/2000/svg" xmlns:xlink="http://www.w3.org/1999/xlink">
	<desc>
			Created with Pixso.
	</desc>
	<defs/>
	<path d="M20.16 1.65C19.39 1.99 18.58 2.21 17.76 2.31C18.63 1.79 19.28 0.96 19.6 0C18.78 0.48 17.88 0.82 16.94 1.01C16.31 0.34 15.48 -0.11 14.57 -0.26C13.66 -0.41 12.72 -0.26 11.91 0.18C11.1 0.61 10.45 1.3 10.07 2.14C9.69 2.98 9.6 3.93 9.81 4.82C8.15 4.74 6.52 4.31 5.04 3.56C3.55 2.8 2.24 1.75 1.19 0.45C0.82 1.09 0.63 1.82 0.63 2.56C0.63 4.01 1.37 5.29 2.49 6.04C1.82 6.02 1.17 5.84 0.59 5.52L0.59 5.57C0.59 6.53 0.93 7.47 1.54 8.22C2.15 8.96 3 9.48 3.95 9.67C3.33 9.83 2.69 9.86 2.06 9.74C2.32 10.57 2.85 11.3 3.55 11.82C4.25 12.34 5.09 12.63 5.97 12.64C5.1 13.33 4.1 13.83 3.04 14.13C1.98 14.42 0.87 14.51 -0.23 14.38C1.69 15.61 3.91 16.26 6.18 16.26C13.88 16.26 18.08 9.88 18.08 4.36C18.08 4.18 18.08 4 18.07 3.82C18.89 3.22 19.6 2.49 20.16 1.65L20.16 1.65Z" fill="#899D9D" fill-opacity="1.000000" fill-rule="nonzero"/>
</svg>
